<svg width="34" height="36" viewBox="-3 -2 40 40" fill="none" xmlns="http://www.w3.org/2000/svg">
    <path d="M0 12C0 5.37258 5.37258 0 12 0H33.6141V24C33.6141 30.6274 28.2415 36 21.6141 36H0V12Z" fill="#34321D"/>
    <path d="M21.251 14.5589C21.1179 14.0963 20.9309 13.6876 20.6901 13.3327C20.4493 12.9715 20.1546 12.6673 19.8061 12.4202C19.4639 12.1667 19.071 11.9734 18.6274 11.8403C18.1901 11.7072 17.7053 11.6407 17.173 11.6407C16.1781 11.6407 15.3035 11.8878 14.5494 12.3821C13.8016 12.8764 13.2186 13.5957 12.8004 14.5399C12.3821 15.4778 12.173 16.6248 12.173 17.981C12.173 19.3371 12.379 20.4905 12.7909 21.4411C13.2028 22.3916 13.7858 23.1172 14.5399 23.6179C15.294 24.1122 16.1844 24.3593 17.211 24.3593C18.1426 24.3593 18.9379 24.1945 19.597 23.865C20.2624 23.5292 20.7693 23.057 21.1179 22.4487C21.4727 21.8403 21.6502 21.121 21.6502 20.2909L22.4867 20.4144H17.4677V17.3156H25.6141V19.7681C25.6141 21.4791 25.2529 22.9493 24.5304 24.1787C23.808 25.4018 22.8131 26.346 21.5456 27.0114C20.2782 27.6705 18.827 28 17.192 28C15.3669 28 13.7636 27.5976 12.3821 26.7928C11.0006 25.9816 9.92332 24.8314 9.15019 23.3422C8.3834 21.8466 8 20.0722 8 18.019C8 16.4411 8.22814 15.0342 8.68441 13.7985C9.14702 12.5564 9.79341 11.5044 10.6236 10.6426C11.4537 9.78074 12.4202 9.12484 13.5228 8.6749C14.6255 8.22497 15.82 8 17.1065 8C18.2091 8 19.2357 8.1616 20.1863 8.48479C21.1369 8.80165 21.9797 9.25158 22.7148 9.8346C23.4563 10.4176 24.0615 11.1115 24.5304 11.9163C24.9994 12.7148 25.3004 13.5957 25.4335 14.5589H21.251Z" fill="#FA9403"/>
</svg>
